<svg width="61" height="60" viewBox="0 0 61 60" fill="none" xmlns="http://www.w3.org/2000/svg">
<rect x="0.5" width="60" height="60" rx="30" fill="#013331"/>
<rect x="30.4286" y="21.5" width="11.5714" height="17.2857" rx="1.5" stroke="white"/>
<path fill-rule="evenodd" clip-rule="evenodd" d="M20.5 21C19.3954 21 18.5 21.8954 18.5 23V37.2857C18.5 38.3903 19.3954 39.2857 20.5 39.2857H35.9286C37.0331 39.2857 37.9286 38.3903 37.9286 37.2857V23C37.9286 21.8954 37.0331 21 35.9286 21H20.5ZM23.7571 31.9714C24.8933 31.9714 25.8143 31.0504 25.8143 29.9143C25.8143 28.7782 24.8933 27.8571 23.7571 27.8571C22.621 27.8571 21.7 28.7782 21.7 29.9143C21.7 31.0504 22.621 31.9714 23.7571 31.9714Z" fill="white"/>
</svg>
