<svg width="61" height="60" viewBox="0 0 61 60" fill="none" xmlns="http://www.w3.org/2000/svg">
<rect x="0.5" width="60" height="60" rx="30" fill="#BB6BD9"/>
<path d="M19.5 35V39.5C19.5 40.0523 19.9477 40.5 20.5 40.5H39.5C40.0523 40.5 40.5 40.0523 40.5 39.5V35" stroke="white" stroke-width="2" stroke-linecap="round" stroke-linejoin="round"/>
<path d="M29.7929 33.7071C30.1834 34.0976 30.8166 34.0976 31.2071 33.7071L37.5711 27.3431C37.9616 26.9526 37.9616 26.3195 37.5711 25.9289C37.1805 25.5384 36.5474 25.5384 36.1569 25.9289L30.5 31.5858L24.8431 25.9289C24.4526 25.5384 23.8195 25.5384 23.4289 25.9289C23.0384 26.3195 23.0384 26.9526 23.4289 27.3431L29.7929 33.7071ZM29.5 19L29.5 33L31.5 33L31.5 19L29.5 19Z" fill="white"/>
</svg>
