<svg width="31" height="30" viewBox="0 0 31 30" fill="none" xmlns="http://www.w3.org/2000/svg">
<path fill-rule="evenodd" clip-rule="evenodd" d="M21.1527 13.3496L23.2085 13.6856C23.3769 13.713 23.5003 13.8584 23.5 14.0289V15.9419C23.5 16.1106 23.3789 16.2553 23.2123 16.2845L21.1537 16.6459C21.0344 17.0584 20.8706 17.4557 20.6643 17.8313L21.8811 19.5207C21.9809 19.6591 21.9653 19.8494 21.8449 19.9701L20.4924 21.3235C20.3728 21.4428 20.1849 21.4598 20.0465 21.3621L18.3402 20.1652C17.9639 20.3746 17.5642 20.5416 17.1471 20.6643L16.7836 22.713C16.7544 22.879 16.61 23 16.4413 23H14.5281C14.358 23 14.2129 22.8772 14.1855 22.7099L13.8459 20.6713C13.4296 20.551 13.0278 20.385 12.6476 20.176L10.9535 21.3624C10.8154 21.4595 10.6272 21.4428 10.5079 21.3235L9.15545 19.9701C9.03544 19.8494 9.01978 19.6598 9.11858 19.5217L10.3155 17.8477C10.1044 17.4657 9.93673 17.0626 9.81533 16.6442L7.78698 16.2845C7.62105 16.255 7.5 16.1106 7.5 15.9419V14.0289C7.5 13.8591 7.62314 13.7137 7.79081 13.6859L9.81916 13.3482C9.94126 12.9287 10.1089 12.5256 10.3194 12.1447L9.13701 10.4532C9.03996 10.3151 9.05666 10.1273 9.17597 10.008L10.5281 8.656C10.6488 8.536 10.8377 8.52 10.9765 8.61913L12.6566 9.81913C13.034 9.61252 13.4348 9.448 13.8522 9.328L14.1848 7.29183C14.2122 7.12348 14.3576 7 14.5281 7H16.4413C16.6104 7 16.7547 7.12174 16.7839 7.288L17.1426 9.3353C17.5576 9.456 17.9576 9.62226 18.3364 9.83165L20.0211 8.62087C20.1595 8.52104 20.3495 8.5367 20.4702 8.65704L21.823 10.009C21.9423 10.1287 21.959 10.3169 21.8619 10.455L20.6618 12.1652C20.8678 12.5405 21.0323 12.937 21.1527 13.3496ZM13.065 15C13.065 16.3447 14.1552 17.4348 15.5 17.4348C16.8448 17.4348 17.935 16.3447 17.935 15C17.935 13.6553 16.8448 12.5652 15.5 12.5652C14.1552 12.5652 13.065 13.6553 13.065 15Z" fill="#777777"/>
</svg>
