<svg width="31" height="32" viewBox="0 0 31 32" fill="none" xmlns="http://www.w3.org/2000/svg">
<g filter="url(#filter0_d_273_2179)">
<rect x="15" y="14.5" width="1" height="1" fill="white" stroke="white"/>
<rect x="15" y="10.5" width="1" height="1" fill="white" stroke="white"/>
<rect x="11" y="14.5" width="1" height="1" fill="white" stroke="white"/>
<rect x="7" y="14.5" width="1" height="1" fill="white" stroke="white"/>
<rect x="15" y="6.5" width="1" height="1" fill="white" stroke="white"/>
<rect x="15" y="18.5" width="1" height="1" fill="white" stroke="white"/>
<rect x="15" y="22.5" width="1" height="1" fill="white" stroke="white"/>
<rect x="19" y="14.5" width="1" height="1" fill="white" stroke="white"/>
<rect x="19" y="18.5" width="1" height="1" fill="white" stroke="white"/>
<rect x="19" y="22.5" width="1" height="1" fill="white" stroke="white"/>
<rect x="23" y="14.5" width="1" height="1" fill="white" stroke="white"/>
<rect x="23" y="18.5" width="1" height="1" fill="white" stroke="white"/>
<rect x="23" y="22.5" width="1" height="1" fill="white" stroke="white"/>
<mask id="path-14-inside-1_273_2179" fill="white">
<rect x="6.5" y="6" width="6" height="6" rx="1"/>
</mask>
<rect x="6.5" y="6" width="6" height="6" rx="1" stroke="white" stroke-width="4" mask="url(#path-14-inside-1_273_2179)"/>
<mask id="path-15-inside-2_273_2179" fill="white">
<rect x="6.5" y="18" width="6" height="6" rx="1"/>
</mask>
<rect x="6.5" y="18" width="6" height="6" rx="1" stroke="white" stroke-width="4" mask="url(#path-15-inside-2_273_2179)"/>
<mask id="path-16-inside-3_273_2179" fill="white">
<rect x="18.5" y="6" width="6" height="6" rx="1"/>
</mask>
<rect x="18.5" y="6" width="6" height="6" rx="1" stroke="white" stroke-width="4" mask="url(#path-16-inside-3_273_2179)"/>
</g>
<defs>
<filter id="filter0_d_273_2179" x="-3.5" y="0" width="38" height="38" filterUnits="userSpaceOnUse" color-interpolation-filters="sRGB">
<feFlood flood-opacity="0" result="BackgroundImageFix"/>
<feColorMatrix in="SourceAlpha" type="matrix" values="0 0 0 0 0 0 0 0 0 0 0 0 0 0 0 0 0 0 127 0" result="hardAlpha"/>
<feOffset dy="4"/>
<feGaussianBlur stdDeviation="2"/>
<feComposite in2="hardAlpha" operator="out"/>
<feColorMatrix type="matrix" values="0 0 0 0 0 0 0 0 0 0 0 0 0 0 0 0 0 0 0.25 0"/>
<feBlend mode="normal" in2="BackgroundImageFix" result="effect1_dropShadow_273_2179"/>
<feBlend mode="normal" in="SourceGraphic" in2="effect1_dropShadow_273_2179" result="shape"/>
</filter>
</defs>
</svg>
