<svg width="20" height="21" viewBox="0 0 20 21" fill="none" xmlns="http://www.w3.org/2000/svg">
<path fill-rule="evenodd" clip-rule="evenodd" d="M19 10.5C19 13.2614 14.9706 15.5 10 15.5C5.02944 15.5 1 13.2614 1 10.5C1 7.73858 5.02944 5.5 10 5.5C14.9706 5.5 19 7.73858 19 10.5ZM14 10.5C14 12.7091 12.2091 14.5 10 14.5C7.79086 14.5 6 12.7091 6 10.5C6 8.29086 7.79086 6.5 10 6.5C12.2091 6.5 14 8.29086 14 10.5ZM10 12.5C11.1046 12.5 12 11.6046 12 10.5C12 9.39543 11.1046 8.5 10 8.5C8.89543 8.5 8 9.39543 8 10.5C8 11.6046 8.89543 12.5 10 12.5Z" fill="#777777"/>
</svg>
